<svg width="169" height="44" viewBox="0 0 169 44" fill="none" xmlns="http://www.w3.org/2000/svg">
<g clip-path="url(#clip0_1_178)">
<path d="M10.2048 3.58751C7.92031 2.80054 6.60592 1.9417 5.87366 1.30542C5.40925 3.60663 4.96584 7.37867 5.90918 9.58865C8.05542 8.21249 9.59361 6.06559 10.2048 3.58751Z" fill="#1B1B1B"/>
<path d="M36.0908 9.58857C37.0342 7.37883 36.5908 3.60704 36.1264 1.30542C35.3942 1.94178 34.0799 2.80062 31.7953 3.58751C32.4067 6.06592 33.9448 8.21265 36.0908 9.58857Z" fill="#1B1B1B"/>
<path d="M21 21.044C23.067 21.044 24.7486 19.3624 24.7486 17.2955C24.7486 16.7622 24.6362 16.2421 24.4212 15.7632H22.2306V17.5142H19.7695V15.7632H17.5788C17.3639 16.242 17.2515 16.7621 17.2515 17.2955C17.2515 19.3624 18.9331 21.044 21 21.044Z" fill="#1B1B1B"/>
<path d="M36.9878 35.829C36.3446 33.3488 36.0319 31.0876 36.0319 28.9162V16.0319C36.0319 14.6972 35.8575 13.3785 35.5135 12.104C32.2327 10.3116 29.936 7.14249 29.2539 3.46717C26.8018 1.85179 23.9592 1 21 1C18.0407 1 15.1983 1.85162 12.7462 3.46708C12.0643 7.14199 9.76744 10.3115 6.48647 12.104C6.1425 13.3786 5.96809 14.6974 5.96809 16.0319V28.9162C5.96809 31.0876 5.65536 33.3487 5.0122 35.829C4.72318 36.9436 5.77005 38.1629 6.92914 38.6026C7.71514 38.9004 8.79252 38.9801 9.46243 37.6652L11.6553 38.7824C11.2537 39.5705 11.2949 40.2456 11.7814 40.8463C12.4535 41.6765 13.8396 42.1268 14.8717 41.8504C15.6183 41.6504 16.0485 41.1284 16.1868 40.2548L18.6176 40.6398C18.4792 41.5133 18.7271 42.1427 19.3752 42.5636C20.2712 43.1455 21.7287 43.1455 22.6246 42.5636C23.2728 42.1427 23.5206 41.5133 23.3822 40.6398L25.8131 40.2548C25.9515 41.1284 26.3816 41.6504 27.1282 41.8504C28.1601 42.1272 29.5463 41.6763 30.2185 40.8463C30.705 40.2456 30.7462 39.5705 30.3446 38.7824L32.5374 37.6652C33.2073 38.98 34.2849 38.9007 35.0707 38.6026C36.23 38.1629 37.2769 36.9436 36.9878 35.829ZM26.778 30.7855H15.2221V28.3244H26.778V30.7855ZM29.6812 15.7631H27.0181C27.1444 16.2602 27.2097 16.7741 27.2097 17.2954C27.2097 20.7194 24.4241 23.505 21 23.505C17.5761 23.505 14.7905 20.7194 14.7905 17.2954C14.7905 16.7741 14.8558 16.2602 14.982 15.7631H12.3189V13.302H29.6812V15.7631H29.6812Z" fill="#1B1B1B"/>
</g>
<path d="M52.6 4.94H64.16V7.58H59.86V16H56.9V7.58H52.6V4.94ZM65.6939 4.94H75.8739V7.6H68.6339V9.06H75.1339V11.72H68.6339V13.28H76.1339V16H65.6939V4.94ZM77.9009 4.94H80.5809L86.5009 11.62V4.94H89.4209V16H86.7209L80.8009 9.32V16H77.9009V4.94ZM102.539 6.44L101.119 8.6C99.9327 7.73333 98.486 7.3 96.7794 7.3C95.246 7.3 94.4794 7.6 94.4794 8.2C94.4794 8.41333 94.566 8.56 94.7394 8.64C94.926 8.70667 95.2194 8.76667 95.6194 8.82L98.8394 9.18C101.466 9.5 102.779 10.64 102.779 12.6C102.779 13.8133 102.239 14.7333 101.159 15.36C100.093 15.9733 98.686 16.28 96.9394 16.28C95.766 16.28 94.7194 16.14 93.7994 15.86C92.8927 15.5667 91.9927 15.08 91.0994 14.4L92.4794 12.12C93.986 13.1867 95.5594 13.72 97.1994 13.72C97.9994 13.72 98.6527 13.6333 99.1594 13.46C99.666 13.2733 99.9194 13 99.9194 12.64C99.9194 12.4267 99.866 12.2733 99.7594 12.18C99.666 12.0867 99.4527 12.0267 99.1194 12L95.3194 11.56C94.0927 11.4133 93.1594 11.08 92.5194 10.56C91.8927 10.0267 91.5794 9.24667 91.5794 8.22C91.5794 7.06 92.066 6.18 93.0394 5.58C94.0127 4.98 95.2594 4.68 96.7794 4.68C99.0994 4.68 101.019 5.26667 102.539 6.44ZM104.503 4.94H111.043C112.389 4.94 113.496 5.35333 114.363 6.18C115.229 6.99333 115.663 8.04667 115.663 9.34C115.663 10.6333 115.229 11.6733 114.363 12.46C113.496 13.2467 112.389 13.64 111.043 13.64H107.443V16H104.503V4.94ZM107.443 7.62V10.96H110.923C111.456 10.96 111.883 10.82 112.203 10.54C112.536 10.26 112.703 9.86 112.703 9.34C112.703 8.82 112.536 8.40667 112.203 8.1C111.883 7.78 111.456 7.62 110.923 7.62H107.443ZM117.295 4.94H123.835C125.182 4.94 126.289 5.35333 127.155 6.18C128.022 6.99333 128.455 8.04667 128.455 9.34C128.455 10.9667 127.789 12.18 126.455 12.98L128.135 16H124.935L123.675 13.64H120.235V16H117.295V4.94ZM120.235 7.62V10.96H123.715C124.249 10.96 124.675 10.82 124.995 10.54C125.329 10.26 125.495 9.86 125.495 9.34C125.495 8.82 125.329 8.40667 124.995 8.1C124.675 7.78 124.249 7.62 123.715 7.62H120.235ZM129.971 4.94H140.151V7.6H132.911V9.06H139.411V11.72H132.911V13.28H140.411V16H129.971V4.94ZM148.458 7.56L146.698 11.82H150.598L148.918 7.56H148.458ZM146.578 4.94H150.858L155.558 16H152.438L151.738 14.38H145.618L144.938 16H141.778L146.578 4.94ZM157.042 4.94H162.862C164.408 4.94 165.788 5.46667 167.002 6.52C168.215 7.57333 168.822 8.88667 168.822 10.46C168.822 12.0333 168.215 13.3533 167.002 14.42C165.788 15.4733 164.408 16 162.862 16H157.042V4.94ZM159.982 7.6V13.3H162.902C163.728 13.3 164.428 13.0267 165.002 12.48C165.588 11.9333 165.882 11.26 165.882 10.46C165.882 9.66 165.588 8.98667 165.002 8.44C164.428 7.88 163.728 7.6 162.902 7.6H159.982ZM52.92 26.94H56.68L60.12 34.32H60.2L63.92 26.94H67.46V38H64.52V31.04L61.3 38H58.94L55.78 31.04V38H52.92V26.94ZM73.1263 30.1C72.5129 30.7 72.2063 31.4933 72.2063 32.48C72.2063 33.4667 72.5129 34.2667 73.1263 34.88C73.7529 35.48 74.5396 35.78 75.4863 35.78C76.4196 35.78 77.1929 35.48 77.8063 34.88C78.4329 34.2667 78.7463 33.4667 78.7463 32.48C78.7463 31.4933 78.4329 30.7 77.8063 30.1C77.1929 29.4867 76.4196 29.18 75.4863 29.18C74.5396 29.18 73.7529 29.4867 73.1263 30.1ZM79.8663 28.32C81.0929 29.4133 81.7063 30.8 81.7063 32.48C81.7063 34.16 81.0929 35.5467 79.8663 36.64C78.6396 37.7333 77.1796 38.28 75.4863 38.28C73.7929 38.28 72.3329 37.7333 71.1063 36.64C69.8796 35.5467 69.2663 34.16 69.2663 32.48C69.2663 30.8 69.8796 29.4133 71.1063 28.32C72.3329 27.2267 73.7929 26.68 75.4863 26.68C77.1796 26.68 78.6396 27.2267 79.8663 28.32ZM83.4869 26.94H86.1669L92.0869 33.62V26.94H95.0069V38H92.3069L86.3869 31.32V38H83.4869V26.94ZM108.125 28.44L106.705 30.6C105.519 29.7333 104.072 29.3 102.365 29.3C100.832 29.3 100.065 29.6 100.065 30.2C100.065 30.4133 100.152 30.56 100.325 30.64C100.512 30.7067 100.805 30.7667 101.205 30.82L104.425 31.18C107.052 31.5 108.365 32.64 108.365 34.6C108.365 35.8133 107.825 36.7333 106.745 37.36C105.679 37.9733 104.272 38.28 102.525 38.28C101.352 38.28 100.305 38.14 99.3853 37.86C98.4786 37.5667 97.5786 37.08 96.6853 36.4L98.0653 34.12C99.572 35.1867 101.145 35.72 102.785 35.72C103.585 35.72 104.239 35.6333 104.745 35.46C105.252 35.2733 105.505 35 105.505 34.64C105.505 34.4267 105.452 34.2733 105.345 34.18C105.252 34.0867 105.039 34.0267 104.705 34L100.905 33.56C99.6786 33.4133 98.7453 33.08 98.1053 32.56C97.4786 32.0267 97.1653 31.2467 97.1653 30.22C97.1653 29.06 97.652 28.18 98.6253 27.58C99.5986 26.98 100.845 26.68 102.365 26.68C104.685 26.68 106.605 27.2667 108.125 28.44ZM109.553 26.94H121.113V29.58H116.813V38H113.853V29.58H109.553V26.94ZM122.647 26.94H132.827V29.6H125.587V31.06H132.087V33.72H125.587V35.28H133.087V38H122.647V26.94ZM134.854 26.94H141.394C142.741 26.94 143.847 27.3533 144.714 28.18C145.581 28.9933 146.014 30.0467 146.014 31.34C146.014 32.9667 145.347 34.18 144.014 34.98L145.694 38H142.494L141.234 35.64H137.794V38H134.854V26.94ZM137.794 29.62V32.96H141.274C141.807 32.96 142.234 32.82 142.554 32.54C142.887 32.26 143.054 31.86 143.054 31.34C143.054 30.82 142.887 30.4067 142.554 30.1C142.234 29.78 141.807 29.62 141.274 29.62H137.794Z" fill="#1B1B1B"/>
<defs>
<clipPath id="clip0_1_178">
<rect width="42" height="42" fill="white" transform="translate(0 1)"/>
</clipPath>
</defs>
</svg>
