<svg width="32" height="32" viewBox="0 0 32 32" fill="none" xmlns="http://www.w3.org/2000/svg">
<circle cx="16" cy="16" r="16" fill="#1B1B1B"/>
<g clip-path="url(#clip0_56_90)">
<path d="M19.8391 17.1937C19.8079 17.1788 18.6415 16.6044 18.4342 16.5298C18.3496 16.4994 18.259 16.4697 18.1625 16.4697C18.005 16.4697 17.8727 16.5482 17.7697 16.7024C17.6531 16.8756 17.3004 17.2879 17.1914 17.4111C17.1772 17.4273 17.1578 17.4468 17.1461 17.4468C17.1357 17.4468 16.9552 17.3724 16.9005 17.3487C15.6492 16.8051 14.6995 15.4981 14.5692 15.2777C14.5506 15.246 14.5499 15.2316 14.5497 15.2316C14.5543 15.2148 14.5964 15.1726 14.6181 15.1509C14.6816 15.088 14.7504 15.0051 14.817 14.925C14.8486 14.887 14.8802 14.849 14.9112 14.8131C15.0078 14.7007 15.0508 14.6135 15.1007 14.5124L15.1268 14.4598C15.2486 14.2179 15.1446 14.0138 15.111 13.9478C15.0834 13.8927 14.5909 12.704 14.5385 12.5791C14.4126 12.2778 14.2462 12.1375 14.015 12.1375C13.9935 12.1375 14.015 12.1375 13.925 12.1412C13.8154 12.1459 13.2188 12.2244 12.955 12.3907C12.6753 12.5671 12.202 13.1292 12.202 14.1179C12.202 15.0077 12.7667 15.8479 13.0091 16.1674C13.0152 16.1755 13.0262 16.1918 13.0423 16.2153C13.9708 17.5713 15.1282 18.5762 16.3016 19.0449C17.4312 19.4961 17.9661 19.5483 18.2702 19.5483H18.2702C18.398 19.5483 18.5003 19.5382 18.5905 19.5293L18.6478 19.5239C19.038 19.4893 19.8956 19.0449 20.0906 18.5029C20.2443 18.0759 20.2848 17.6094 20.1826 17.4401C20.1126 17.325 19.9919 17.2671 19.8391 17.1937Z" fill="white"/>
<path d="M16.142 8C11.8087 8 8.28331 11.4989 8.28331 15.7996C8.28331 17.1906 8.65557 18.5523 9.36077 19.7439L8.011 23.7255C7.98586 23.7997 8.00456 23.8818 8.05947 23.9377C8.0991 23.9782 8.15287 24 8.20778 24C8.22882 24 8.25001 23.9968 8.27069 23.9902L12.4224 22.671C13.5585 23.278 14.8425 23.5984 16.1421 23.5984C20.4749 23.5984 24 20.0999 24 15.7996C24 11.4989 20.4749 8 16.142 8ZM16.142 21.9737C14.9192 21.9737 13.7348 21.6206 12.7168 20.9526C12.6825 20.9301 12.6428 20.9185 12.6028 20.9185C12.5817 20.9185 12.5605 20.9218 12.5398 20.9283L10.4601 21.5894L11.1315 19.6087C11.1532 19.5446 11.1423 19.4739 11.1023 19.4192C10.3271 18.3599 9.91723 17.1083 9.91723 15.7996C9.91723 12.3948 12.7097 9.62473 16.142 9.62473C19.5739 9.62473 22.366 12.3948 22.366 15.7996C22.366 19.2041 19.574 21.9737 16.142 21.9737Z" fill="white"/>
</g>
<defs>
<clipPath id="clip0_56_90">
<rect width="16" height="16" fill="white" transform="translate(8 8)"/>
</clipPath>
</defs>
</svg>
